<svg
  aria-hidden="true"
  style="position: absolute; width: 0; height: 0; overflow: hidden;"
  version="1.1"
  xmlns="http://www.w3.org/2000/svg"
  xmlns:xlink="http://www.w3.org/1999/xlink"
>
<defs>
<symbol id="icon-bathtub" viewBox="">
<path
        stroke-linejoin="miter"
        stroke-linecap="butt"
        stroke-miterlimit="4"
        stroke-width="0.4101"
        d="M30.21 14.951h-1.052v-0.527c-0.001-0.872-0.707-1.578-1.579-1.579h-7.372c-0.872 0.001-1.578 0.707-1.579 1.579v0.527h-14.73v-10.528c0-0.002 0-0.004 0-0.006 0-1.743 1.413-3.156 3.156-3.156 1.578 0 2.885 1.158 3.119 2.671l0.002 0.018c-1.486 0.276-2.597 1.56-2.6 3.104v0.527c0 0.291 0.236 0.527 0.527 0.527h5.262c0.291 0 0.527-0.236 0.527-0.527v0-0.527c-0.003-1.568-1.148-2.868-2.648-3.112l-0.018-0.002c-0.246-2.113-2.025-3.737-4.183-3.737-2.325 0-4.21 1.885-4.21 4.21 0 0.004 0 0.008 0 0.012v-0.001 10.528h-1.048c-0.869 0.003-1.572 0.708-1.572 1.577 0 0.68 0.431 1.26 1.034 1.481l0.011 0.003v4.306c0.010 3.879 3.011 7.054 6.818 7.342l0.025 0.002v0.554c0 0.872 0.707 1.579 1.579 1.579s1.579-0.707 1.579-1.579v0-0.527h9.476v0.527c0 0.872 0.707 1.579 1.579 1.579s1.579-0.707 1.579-1.579v0-0.554c3.832-0.289 6.832-3.464 6.843-7.342v-4.307c0.62-0.221 1.055-0.803 1.055-1.487 0-0.87-0.705-1.575-1.575-1.575-0.003 0-0.005 0-0.008 0h0zM12.839 7.054h-4.212c0-1.163 0.943-2.106 2.106-2.106s2.106 0.943 2.106 2.106v0zM27.052 14.951v-0.527c0.018-0.277 0.247-0.494 0.526-0.494s0.508 0.218 0.526 0.493l0 0.002v0.527zM19.688 14.424c0-0.291 0.236-0.527 0.527-0.527v0h5.887c-0.060 0.156-0.095 0.337-0.096 0.526v5.792h-4.737c-0.277 0.018-0.494 0.247-0.494 0.526s0.218 0.508 0.493 0.526l0.002 0h4.737v1.052h-6.318zM10.212 30.214c0.001 0.010 0.001 0.021 0.001 0.033 0 0.291-0.236 0.527-0.527 0.527s-0.527-0.236-0.527-0.527c0-0.012 0-0.023 0.001-0.034l-0 0.002v-0.527h1.052zM22.846 30.214c0.001 0.010 0.001 0.021 0.001 0.033 0 0.291-0.236 0.527-0.527 0.527s-0.527-0.236-0.527-0.527c0-0.012 0-0.023 0.001-0.034l-0 0.002v-0.527h1.052zM23.373 28.635h-14.746c-3.486-0.005-6.311-2.83-6.316-6.315v-4.21h13.686c0.010 0.001 0.021 0.001 0.033 0.001 0.291 0 0.527-0.236 0.527-0.527s-0.236-0.527-0.527-0.527c-0.012 0-0.023 0-0.034 0.001l0.002-0h-14.213c-0.001 0-0.002 0-0.002 0-0.147 0-0.279-0.061-0.373-0.16l-0-0c-0.094-0.092-0.152-0.22-0.152-0.362 0-0.001 0-0.002 0-0.004v0c0-0.001 0-0.001 0-0.002 0-0.291 0.236-0.527 0.527-0.527 0 0 0 0 0 0h16.844v6.316c0.002 0.386 0.211 0.722 0.522 0.904l0.005 0.003v1.2c-0.001 0.010-0.001 0.021-0.001 0.033 0 0.291 0.236 0.527 0.527 0.527s0.527-0.236 0.527-0.527c0-0.012-0-0.023-0.001-0.034l0 0.002v-1.052h1.052v1.052c-0.001 0.010-0.001 0.021-0.001 0.033 0 0.291 0.236 0.527 0.527 0.527s0.527-0.236 0.527-0.527c0-0.012-0-0.023-0.001-0.034l0 0.002v-1.052h1.052v1.052c0 0.291 0.236 0.527 0.527 0.527s0.527-0.236 0.527-0.527v-1.052h1.052v1.052c-0.001 0.010-0.001 0.021-0.001 0.033 0 0.291 0.236 0.527 0.527 0.527s0.527-0.236 0.527-0.527c0-0.012-0-0.023-0.001-0.034l0 0.002v-1.2c0.316-0.184 0.525-0.521 0.527-0.906v-4.21h2.633v4.212c-0.005 3.486-2.83 6.311-6.315 6.316h-0zM30.216 17.055h-3.158v-1.052h3.158c0 0 0 0 0 0 0.148 0 0.281 0.062 0.375 0.162l0 0c0.094 0.092 0.152 0.22 0.152 0.362 0 0.001 0 0.002 0 0.004v-0c0 0 0 0 0 0 0 0.291-0.236 0.527-0.527 0.527-0.002 0-0.004 0-0.006-0h0zM30.216 17.055"
      />
<path
        stroke-linejoin="miter"
        stroke-linecap="butt"
        stroke-miterlimit="4"
        stroke-width="0.4101"
        d="M11.26 9.685c-0.018-0.277-0.246-0.494-0.526-0.494s-0.508 0.218-0.526 0.493l-0 0.002v0.527c0.018 0.277 0.246 0.494 0.526 0.494s0.508-0.218 0.526-0.493l0-0.002zM11.26 9.685"
      />
<path
        stroke-linejoin="miter"
        stroke-linecap="butt"
        stroke-miterlimit="4"
        stroke-width="0.4101"
        d="M10.735 11.791c-0.291 0-0.527 0.236-0.527 0.527v0 0.527c0.018 0.277 0.246 0.494 0.526 0.494s0.508-0.218 0.526-0.493l0-0.002v-0.527c0 0 0 0 0 0 0-0.29-0.235-0.526-0.525-0.527h-0zM10.735 11.791"
      />
<path
        stroke-linejoin="miter"
        stroke-linecap="butt"
        stroke-miterlimit="4"
        stroke-width="0.4101"
        d="M8.883 8.715l-0.369 0.375c-0.104 0.097-0.169 0.234-0.169 0.386 0 0.291 0.236 0.527 0.527 0.527 0.157 0 0.297-0.068 0.394-0.177l0-0.001 0.369-0.375c0.082-0.093 0.133-0.215 0.133-0.35 0-0.291-0.236-0.527-0.527-0.527-0.139 0-0.265 0.053-0.359 0.141l0-0zM8.883 8.715"
      />
<path
        stroke-linejoin="miter"
        stroke-linecap="butt"
        stroke-miterlimit="4"
        stroke-width="0.4101"
        d="M7.042 10.596l-0.369 0.375c-0.082 0.093-0.133 0.215-0.133 0.35 0 0.291 0.236 0.527 0.527 0.527 0.139 0 0.265-0.053 0.359-0.141l-0 0 0.369-0.375c0.104-0.097 0.169-0.234 0.169-0.386 0-0.291-0.236-0.527-0.527-0.527-0.157 0-0.297 0.068-0.394 0.177l-0 0.001zM7.042 10.596"
      />
<path
        stroke-linejoin="miter"
        stroke-linecap="butt"
        stroke-miterlimit="4"
        stroke-width="0.4101"
        d="M11.838 8.709c-0.095 0.095-0.154 0.227-0.154 0.372s0.059 0.277 0.154 0.372v0l0.369 0.375c0.097 0.109 0.238 0.177 0.394 0.177 0.291 0 0.527-0.236 0.527-0.527 0-0.152-0.065-0.29-0.168-0.386l-0-0-0.369-0.375c-0.095-0.095-0.227-0.154-0.372-0.154s-0.277 0.059-0.372 0.154v0zM11.838 8.709"
      />
<path
        stroke-linejoin="miter"
        stroke-linecap="butt"
        stroke-miterlimit="4"
        stroke-width="0.4101"
        d="M13.674 11.334l0.369 0.375c0.097 0.109 0.238 0.177 0.394 0.177 0.291 0 0.527-0.236 0.527-0.527 0-0.152-0.065-0.29-0.168-0.386l-0-0-0.369-0.375c-0.094-0.087-0.22-0.141-0.358-0.141-0.291 0-0.527 0.236-0.527 0.527 0 0.134 0.050 0.257 0.133 0.35l-0-0.001zM13.674 11.334"
      />
</symbol>
<symbol  id="icon-location" viewBox="0 0 32 32">
 <path d="M14,0 C21.732,0 28,5.641 28,12.6 C28,23.963 14,36 14,36 C14,36 0,24.064 0,12.6 C0,5.641 6.268,0 14,0 Z" id="Shape" fill="#FF6E6E"></path>
                         <circle id="Oval" fill="#0C0058" fill-rule="nonzero" cx="14" cy="14" r="7"></circle>
</symbol>
<symbol id="icon-bed" viewBox="0 0 43 32">
<path
        d="M40.888 18.271v-14.717c-0.003-1.962-1.593-3.551-3.554-3.555h-32c-1.962 0.003-3.551 1.593-3.555 3.554v14.717c-1.068 0.621-1.775 1.759-1.779 3.062v3.555c0.003 1.962 1.593 3.551 3.554 3.555h0v2.665c0 0.491 0.398 0.889 0.889 0.889h1.779c0 0 0 0 0.001 0 0.347 0 0.647-0.198 0.794-0.487l0.002-0.005 1.531-3.065h25.566l1.531 3.065c0.149 0.294 0.449 0.493 0.796 0.493 0 0 0 0 0.001 0h1.779c0.491 0 0.889-0.398 0.889-0.889v0-2.665c1.962-0.003 3.551-1.593 3.555-3.554v-3.555c-0.004-1.303-0.711-2.441-1.762-3.053l-0.017-0.009zM3.555 3.555c0-0.982 0.796-1.779 1.779-1.779v0h32c0.982 0 1.779 0.796 1.779 1.779v0 14.221h-2.266c0.107-0.129 0.228-0.236 0.326-0.38 0.101-0.142 0.162-0.319 0.162-0.509s-0.061-0.368-0.163-0.512l0.002 0.003c-0.802-1.255-2.163-2.091-3.723-2.156l-0.009-0h-6.422c-1.569 0.065-2.93 0.901-3.721 2.137l-0.011 0.019c-0.101 0.142-0.162 0.319-0.162 0.509s0.061 0.368 0.163 0.512l-0.002-0.003c0.099 0.141 0.22 0.25 0.326 0.38h-4.545c0.107-0.129 0.228-0.236 0.326-0.38 0.101-0.142 0.162-0.319 0.162-0.509s-0.061-0.368-0.163-0.512l0.002 0.003c-0.802-1.255-2.163-2.091-3.723-2.156l-0.009-0h-6.434c-1.569 0.065-2.93 0.901-3.721 2.137l-0.011 0.019c-0.101 0.142-0.162 0.319-0.162 0.509s0.061 0.368 0.163 0.512l-0.002-0.003c0.098 0.141 0.22 0.25 0.326 0.38h-2.268zM35.301 16.887c-0.457 0.524-1.117 0.861-1.855 0.889l-0.005 0h-6.422c-0.749-0.025-1.414-0.363-1.872-0.886l-0.003-0.003c0.457-0.524 1.117-0.861 1.855-0.889l0.005-0h6.434c0.745 0.028 1.405 0.365 1.861 0.886l0.003 0.003zM17.523 16.887c-0.457 0.524-1.117 0.861-1.855 0.889l-0.005 0h-6.434c-0.745-0.028-1.405-0.365-1.861-0.886l-0.003-0.003c0.457-0.524 1.117-0.861 1.855-0.889l0.005-0h6.437c0.743 0.029 1.403 0.366 1.858 0.886l0.003 0.003zM5.674 30.218h-0.341v-1.779h1.23zM37.333 30.218h-0.341l-0.889-1.779h1.23zM40.888 24.885c0 0.982-0.796 1.779-1.779 1.779h-35.555c-0.982 0-1.779-0.796-1.779-1.779v0-3.552c0-0.982 0.796-1.779 1.779-1.779v0h35.566c0.982 0 1.779 0.796 1.779 1.779v0z"
      />
</symbol>
<symbol id="icon-fullscreen-exit" viewBox="0 0 32 32">
<path
        d="M11.001 0c0.553 0 1.001 0.448 1.001 1v0 7.999c0 1.659-1.345 3.003-3.003 3.003v0h-7.998c-0.535-0.022-0.961-0.461-0.961-1s0.426-0.978 0.959-1l0.002-0h7.999c0.553 0 1.001-0.448 1.001-1.001v0-8.002c0-0.553 0.448-1 1.001-1v0zM21.001 0c0.553 0 1 0.448 1 1v0 7.999c0 0.553 0.448 1.001 1 1.001v0h8.001c0.535 0.022 0.961 0.461 0.961 1s-0.426 0.978-0.959 1l-0.002 0h-8.002c-1.659 0-3.003-1.345-3.003-3.003v0-7.996c0 0 0 0 0 0 0-0.553 0.448-1 1-1 0.001 0 0.001 0 0.002 0h-0zM0 20.999c0-0.553 0.448-1 1-1v0h7.999c1.659 0 3.003 1.345 3.003 3.003v8.001c-0.022 0.535-0.461 0.961-1 0.961s-0.978-0.426-1-0.959l-0-0.002v-8.002c0-0.553-0.448-1-1.001-1v0h-8.002c-0.553 0-1-0.448-1-1v0zM20 22.999c0-1.659 1.345-3.003 3.003-3.003v0h8.001c0.535 0.022 0.961 0.461 0.961 1s-0.426 0.978-0.959 1l-0.002 0h-8.004c-0.553 0-1 0.448-1 1v0 8.001c-0.022 0.535-0.461 0.961-1 0.961s-0.978-0.426-1-0.959l-0-0.002z"
      />
</symbol>
<symbol id="icon-Group" viewBox="0 0 32 32">
<path
        d="M9.778 21.573c0 0.85 0.689 1.538 1.538 1.538v0h8.204c0.85 0 1.538-0.689 1.538-1.538v0-4.103c0-0.283-0.23-0.513-0.513-0.513s-0.513 0.23-0.513 0.513v0 4.103c0 0.283-0.229 0.512-0.512 0.512v0h-8.204c-0.283 0-0.512-0.229-0.512-0.512v0-8.206c0-0.283 0.229-0.512 0.512-0.512v0h4.103c0.283 0 0.513-0.23 0.513-0.513s-0.23-0.513-0.513-0.513v0h-4.103c-0.85 0-1.538 0.689-1.538 1.538v0zM16.948 10.29c0-0.283 0.229-0.512 0.512-0.512v0h5.137c0.001 0 0.002 0 0.002 0 0.283 0 0.512 0.229 0.512 0.512 0 0 0 0 0 0v0 5.129c0 0.283-0.23 0.513-0.513 0.513s-0.513-0.23-0.513-0.513v0-4.615h-4.615c-0.003 0-0.006 0-0.009 0-0.283 0-0.512-0.229-0.512-0.512 0-0.001 0-0.002 0-0.003v0z"
      />
<path
        d="M22.95 9.929c0.093 0.093 0.151 0.221 0.151 0.363s-0.058 0.27-0.151 0.363v0l-8.194 8.194c-0.089 0.077-0.207 0.124-0.335 0.124-0.284 0-0.514-0.23-0.514-0.514 0-0.128 0.047-0.246 0.125-0.336l-0.001 0.001 8.209-8.194c0.093-0.093 0.221-0.151 0.363-0.151s0.27 0.058 0.363 0.151v0z"
      />
<path
        d="M3.001 2.001c-0.552 0-1 0.448-1 1v0 8c0 0.552-0.448 1-1 1s-1-0.448-1-1v0-8c0-1.657 1.344-3.001 3.001-3.001v0h8c0.552 0 1 0.448 1 1s-0.448 1-1 1v0zM20.001 1c0 0 0 0 0 0 0-0.552 0.447-0.999 0.998-1h8c1.657 0 3.001 1.344 3.001 3.001v0 8c0 0.552-0.448 1-1 1s-1-0.448-1-1v0-8c0-0.552-0.448-1-1-1v0h-8c-0.551-0.001-0.998-0.449-0.998-1 0 0 0 0 0 0v0zM1 20.001c0.552 0 1 0.448 1 1v0 8c0 0.552 0.448 1 1 1v0h8c0.552 0 1 0.448 1 1s-0.448 1-1 1h-8c-1.657 0-3.001-1.344-3.001-3.001 0-0.001 0-0.002 0-0.003v0-8c0-0.552 0.448-1 1-1v0zM31 20.001c0.552 0 1 0.448 1 1v0 8c-0.001 1.656-1.344 2.999-3.001 2.999 0 0 0 0 0 0h-8c-0.552 0-1-0.448-1-1s0.448-1 1-1h8c0.552 0 1-0.448 1-1v0-8c0.001-0.551 0.449-0.998 1-0.998 0 0 0 0 0 0v0z"
      />
</symbol>
<symbol id="icon-Label" viewBox="0 0 119 32">
<path
        fill="#2289ff"
        style="fill: var(--color1, #2289ff)"
        d="M16.208 1.662h14.545v29.091h-14.545v-29.091z"
      />
<path
        fill="#2289ff"
        style="fill: var(--color1, #2289ff)"
        d="M32.416 32h-32.416v-32h32.416v32zM2.594 2.378v27.243h27.229v-27.243z"
      />
<path
        fill="#2289ff"
        style="fill: var(--color1, #2289ff)"
        d="M44.718 6.323c0.072-0.002 0.157-0.003 0.242-0.003 2.55 0 4.859 1.033 6.532 2.704l-0-0c1.684 1.636 2.728 3.921 2.728 6.451 0 0.070-0.001 0.139-0.002 0.209l0-0.010c0.001 0.051 0.002 0.111 0.002 0.171 0 2.532-1.042 4.822-2.72 6.462l-0.002 0.002c-1.64 1.683-3.928 2.726-6.461 2.726-0.061 0-0.122-0.001-0.182-0.002l0.009 0c-0.058 0.001-0.126 0.002-0.195 0.002-2.541 0-4.839-1.039-6.492-2.716l-0.001-0.001c-1.683-1.624-2.728-3.899-2.728-6.419 0-0.050 0-0.101 0.001-0.151l-0 0.008c-0-0.019-0-0.041-0-0.063 0-1.727 0.461-3.346 1.267-4.741l-0.024 0.046c0.813-1.439 1.961-2.603 3.344-3.41l0.043-0.023c1.315-0.78 2.899-1.241 4.59-1.241 0.017 0 0.034 0 0.051 0h-0.003zM44.796 8.054c-1.383 0-2.676 0.383-3.78 1.049l0.033-0.018c-1.16 0.672-2.097 1.612-2.746 2.739l-0.019 0.036c-0.625 1.089-0.993 2.395-0.993 3.787 0 0.036 0 0.071 0.001 0.107l-0-0.005c-0.001 0.044-0.002 0.096-0.002 0.148 0 2.044 0.844 3.891 2.202 5.212l0.002 0.002c1.319 1.352 3.159 2.191 5.195 2.191 0.038 0 0.077-0 0.115-0.001l-0.006 0c0.016 0 0.035 0 0.055 0 1.392 0 2.697-0.373 3.82-1.025l-0.036 0.020c1.159-0.659 2.093-1.592 2.734-2.715l0.019-0.035c0.622-1.089 0.989-2.393 0.989-3.784 0-0.033-0-0.066-0.001-0.099l0 0.005c0-0.030 0.001-0.066 0.001-0.102 0-1.373-0.367-2.66-1.008-3.769l0.019 0.036c-0.676-1.153-1.619-2.083-2.748-2.724l-0.037-0.019c-1.090-0.648-2.402-1.031-3.805-1.031-0.001 0-0.002 0-0.003 0h0zM57.789 24.582v-17.811h3.693q3.996 0 5.8 0.642c1.701 0.582 3.097 1.686 4.032 3.118l0.018 0.030c0.918 1.442 1.463 3.199 1.463 5.084 0 0.090-0.001 0.18-0.004 0.27l0-0.013c0.001 0.060 0.002 0.13 0.002 0.201 0 1.654-0.429 3.208-1.181 4.556l0.024-0.048c-0.699 1.279-1.724 2.304-2.964 2.984l-0.039 0.019q-1.848 0.97-5.176 0.97zM59.496 22.899h2.058q3.693 0 5.122-0.46c1.319-0.417 2.409-1.245 3.145-2.332l0.013-0.021c0.724-1.108 1.154-2.465 1.154-3.922 0-0.082-0.001-0.164-0.004-0.245l0 0.012c0.002-0.066 0.003-0.145 0.003-0.223 0-1.557-0.467-3.004-1.268-4.21l0.018 0.028c-0.824-1.198-2.026-2.084-3.431-2.493l-0.044-0.011q-1.667-0.505-5.506-0.505h-1.259zM76.256 6.771h10.207v1.745h-8.428v5.582h8.353v1.745h-8.353v6.998h8.353v1.745h-10.133zM89.636 6.771h3.548c0.215-0.008 0.467-0.012 0.721-0.012 1.165 0 2.308 0.093 3.422 0.271l-0.123-0.016c1.044 0.226 1.932 0.782 2.573 1.55l0.006 0.007c0.62 0.758 0.995 1.737 0.995 2.803 0 0.048-0.001 0.096-0.002 0.143l0-0.007c0.001 0.030 0.001 0.065 0.001 0.1 0 0.908-0.255 1.757-0.697 2.479l0.012-0.021c-0.468 0.739-1.136 1.314-1.928 1.656l-0.028 0.011c-0.945 0.369-2.038 0.582-3.181 0.582-0.116 0-0.232-0.002-0.347-0.007l0.017 0 6.405 8.27h-2.203l-6.406-8.27h-1.006v8.27h-1.78zM91.416 8.516v6.054l3.068 0.025c0.108 0.005 0.234 0.009 0.361 0.009 0.813 0 1.596-0.127 2.331-0.363l-0.054 0.015c0.559-0.217 1.016-0.593 1.328-1.073l0.007-0.011c0.301-0.461 0.479-1.025 0.479-1.63 0-0.012-0-0.024-0-0.037l0 0.002c0-0.008 0-0.018 0-0.027 0-0.597-0.181-1.152-0.492-1.612l0.007 0.010c-0.306-0.47-0.741-0.832-1.255-1.041l-0.018-0.007c-0.664-0.206-1.428-0.325-2.22-0.325-0.14 0-0.279 0.004-0.418 0.011l0.019-0.001zM104.603 24.582v-17.812h0.387l11.854 13.653v-13.653h1.756v17.812h-0.399l-11.759-13.487v13.487z"
      />
<path
        fill="#fff"
        style="fill: var(--color2, #fff)"
        d="M2.494 2.494h13.714v27.013h-13.714v-27.013z"
      />
<path
        fill="#0954ab"
        style="fill: var(--color3, #0954ab)"
        d="M4.082 3.889v24.136h24.165v-24.136h-24.165zM3.666 3.473h24.996v24.967h-24.996v-24.967z"
      />
<path
        fill="#fff"
        style="fill: var(--color2, #fff)"
        d="M5.536 24.797l2.705-18.895h0.307l7.68 15.504 7.609-15.504h0.303l2.719 18.895h-1.852l-1.867-13.513-6.681 13.513h-0.481l-6.763-13.616-1.856 13.616z"
      />
<path
        fill="#2289ff"
        style="fill: var(--color1, #2289ff)"
        d="M7.431 24.798h-1.824l2.705-18.896h0.307l7.662 15.464v3.431h-0.233l-6.761-13.617-1.856 13.617z"
      />
<path
        fill="#fff"
        style="fill: var(--color2, #fff)"
        opacity="0.51"
        d="M24.978 26.424c-0-0.004-0-0.009-0-0.014 0-0.278 0.222-0.505 0.498-0.513l0.001-0c0.277 0.008 0.499 0.234 0.499 0.513 0 0.005-0 0.010-0 0.015l0-0.001c0 0.004 0 0.009 0 0.014 0 0.278-0.222 0.505-0.498 0.513l-0.001 0c-0.277-0.008-0.499-0.235-0.499-0.513 0-0.005 0-0.010 0-0.015l-0 0.001zM23.485 26.424c-0-0.004-0-0.010-0-0.015 0-0.278 0.222-0.505 0.498-0.512h0.001c0.277 0.008 0.499 0.235 0.499 0.513 0 0.005-0 0.010-0 0.015l0-0.001c0 0.004 0 0.009 0 0.014 0 0.279-0.222 0.505-0.498 0.513l-0.001 0c-0.277-0.008-0.499-0.235-0.499-0.513 0-0.005 0-0.010 0-0.015l-0 0.001zM22.17 26.424c-0-0.004-0-0.009-0-0.014 0-0.278 0.222-0.505 0.498-0.513l0.001-0c0.277 0.008 0.499 0.234 0.499 0.512 0 0.005-0 0.010-0 0.015l0-0.001c0 0.004 0 0.009 0 0.014 0 0.278-0.222 0.505-0.498 0.513l-0.001 0c-0.277-0.008-0.499-0.235-0.499-0.513 0-0.005 0-0.010 0-0.015l-0 0.001zM20.676 26.424c-0-0.005-0-0.010-0-0.015 0-0.278 0.222-0.505 0.498-0.512h0.001c0.277 0.008 0.499 0.234 0.499 0.513 0 0.005-0 0.010-0 0.015l0-0.001c0 0.004 0 0.009 0 0.014 0 0.278-0.222 0.505-0.498 0.513l-0.001 0c-0.277-0.008-0.499-0.234-0.499-0.513 0-0.005 0-0.010 0-0.015l-0 0.001zM24.978 24.842c-0-0.004-0-0.009-0-0.014 0-0.279 0.222-0.505 0.498-0.513l0.001-0c0.277 0.008 0.499 0.235 0.499 0.513 0 0.005-0 0.010-0 0.015l0-0.001c0 0.004 0 0.009 0 0.014 0 0.278-0.222 0.505-0.498 0.513l-0.001 0c-0.277-0.008-0.499-0.235-0.499-0.513 0-0.005 0-0.010 0-0.015l-0 0.001zM23.485 24.842c-0-0.004-0-0.009-0-0.014 0-0.278 0.222-0.505 0.498-0.513l0.001-0c0.277 0.008 0.499 0.235 0.499 0.513 0 0.005-0 0.010-0 0.015l0-0.001c0 0.004 0 0.009 0 0.014 0 0.279-0.222 0.505-0.498 0.513l-0.001 0c-0.277-0.008-0.499-0.235-0.499-0.513 0-0.005 0-0.010 0-0.015l-0 0.001zM22.17 24.842c-0-0.004-0-0.009-0-0.014 0-0.279 0.222-0.505 0.498-0.513l0.001-0c0.277 0.008 0.499 0.235 0.499 0.513 0 0.005-0 0.010-0 0.015l0-0.001c0 0.004 0 0.009 0 0.014 0 0.278-0.222 0.505-0.498 0.513l-0.001 0c-0.277-0.008-0.499-0.235-0.499-0.513 0-0.005 0-0.010 0-0.015l-0 0.001zM20.676 24.842c-0-0.004-0-0.010-0-0.015 0-0.278 0.222-0.505 0.498-0.513l0.001-0c0.277 0.008 0.499 0.235 0.499 0.513 0 0.005-0 0.010-0 0.015l0-0.001c0 0.004 0 0.009 0 0.014 0 0.278-0.222 0.505-0.498 0.513l-0.001 0c-0.277-0.008-0.499-0.234-0.499-0.513 0-0.005 0-0.010 0-0.015l-0 0.001zM24.978 23.263c-0-0.004-0-0.009-0-0.014 0-0.278 0.222-0.505 0.498-0.513l0.001-0c0.277 0.008 0.499 0.234 0.499 0.513 0 0.005-0 0.010-0 0.015l0-0.001c0 0.004 0 0.009 0 0.014 0 0.278-0.222 0.505-0.498 0.513l-0.001 0c-0.277-0.008-0.499-0.235-0.499-0.513 0-0.005 0-0.010 0-0.015l-0 0.001zM23.485 23.263c-0-0.004-0-0.010-0-0.015 0-0.278 0.222-0.505 0.498-0.513l0.001-0c0.277 0.008 0.499 0.235 0.499 0.513 0 0.005-0 0.010-0 0.015l0-0.001c0 0.004 0 0.009 0 0.014 0 0.279-0.222 0.505-0.498 0.513l-0.001 0c-0.277-0.008-0.499-0.235-0.499-0.513 0-0.005 0-0.011 0-0.016l-0 0.001zM22.17 23.263c-0-0.004-0-0.009-0-0.014 0-0.278 0.222-0.505 0.498-0.513l0.001-0c0.277 0.008 0.499 0.234 0.499 0.513 0 0.005-0 0.010-0 0.015l0-0.001c0 0.004 0 0.009 0 0.014 0 0.278-0.222 0.505-0.498 0.513l-0.001 0c-0.277-0.008-0.499-0.235-0.499-0.513 0-0.005 0-0.010 0-0.015l-0 0.001zM20.676 23.263c-0-0.005-0-0.010-0-0.015 0-0.278 0.222-0.505 0.498-0.512h0.001c0.277 0.008 0.499 0.234 0.499 0.513 0 0.005-0 0.010-0 0.015l0-0.001c0 0.004 0 0.009 0 0.014 0 0.278-0.222 0.505-0.498 0.513l-0.001 0c-0.277-0.008-0.499-0.234-0.499-0.513 0-0.005 0-0.011 0-0.016l-0 0.001zM24.978 21.681c-0-0.004-0-0.009-0-0.014 0-0.279 0.222-0.505 0.498-0.513l0.001-0c0.277 0.008 0.499 0.235 0.499 0.513 0 0.005-0 0.010-0 0.015l0-0.001c0 0.004 0 0.009 0 0.014 0 0.278-0.222 0.505-0.498 0.513l-0.001 0c-0.277-0.008-0.499-0.235-0.499-0.513 0-0.005 0-0.011 0-0.016l-0 0.001zM23.485 21.681c-0-0.004-0-0.009-0-0.014 0-0.278 0.222-0.505 0.498-0.513l0.001-0c0.277 0.008 0.499 0.235 0.499 0.513 0 0.005-0 0.010-0 0.015l0-0.001c0 0.004 0 0.009 0 0.014 0 0.278-0.222 0.505-0.498 0.513l-0.001 0c-0.277-0.008-0.499-0.234-0.499-0.512 0-0.006 0-0.011 0-0.017l-0 0.001zM22.17 21.681c-0-0.004-0-0.009-0-0.014 0-0.279 0.222-0.505 0.498-0.513l0.001-0c0.277 0.008 0.499 0.235 0.499 0.513 0 0.005-0 0.010-0 0.015l0-0.001c0 0.004 0 0.010 0 0.015 0 0.278-0.222 0.505-0.498 0.512h-0.001c-0.277-0.008-0.499-0.235-0.499-0.513 0-0.005 0-0.011 0-0.016l-0 0.001zM20.676 21.681c-0-0.004-0-0.010-0-0.015 0-0.278 0.222-0.505 0.498-0.513l0.001-0c0.277 0.008 0.499 0.235 0.499 0.513 0 0.005-0 0.010-0 0.015l0-0.001c0 0.004 0 0.009 0 0.014 0 0.278-0.222 0.505-0.498 0.513l-0.001 0c-0.277-0.007-0.499-0.233-0.499-0.512 0-0.006 0-0.012 0-0.017l-0 0.001zM24.978 20.099c-0-0.004-0-0.009-0-0.014 0-0.278 0.222-0.505 0.498-0.513l0.001-0c0.277 0.008 0.499 0.234 0.499 0.513 0 0.005-0 0.010-0 0.015l0-0.001c0 0.004 0 0.009 0 0.014 0 0.278-0.222 0.505-0.498 0.513l-0.001 0c-0.277-0.008-0.499-0.235-0.499-0.513 0-0.005 0-0.011 0-0.016l-0 0.001zM23.485 20.099c-0-0.004-0-0.009-0-0.014 0-0.278 0.222-0.505 0.498-0.513l0.001-0c0.277 0.008 0.499 0.235 0.499 0.513 0 0.005-0 0.010-0 0.015l0-0.001c0 0.004 0 0.009 0 0.014 0 0.279-0.222 0.505-0.498 0.513l-0.001 0c-0.277-0.008-0.499-0.235-0.499-0.513 0-0.005 0-0.011 0-0.016l-0 0.001zM22.17 20.099c-0-0.004-0-0.009-0-0.014 0-0.279 0.222-0.505 0.498-0.513l0.001-0c0.277 0.008 0.499 0.234 0.499 0.513 0 0.005-0 0.010-0 0.015l0-0.001c0 0.004 0 0.009 0 0.014 0 0.278-0.222 0.505-0.498 0.513l-0.001 0c-0.277-0.008-0.499-0.235-0.499-0.513 0-0.005 0-0.011 0-0.016l-0 0.001zM20.676 20.099c-0-0.004-0-0.010-0-0.015 0-0.278 0.222-0.505 0.498-0.512h0.001c0.277 0.008 0.499 0.234 0.499 0.513 0 0.005-0 0.010-0 0.015l0-0.001c0 0.004 0 0.009 0 0.014 0 0.278-0.222 0.505-0.498 0.513l-0.001 0c-0.277-0.008-0.499-0.234-0.499-0.513 0-0.006 0-0.011 0-0.017l-0 0.001zM24.978 18.717c-0-0.004-0-0.009-0-0.014 0-0.278 0.222-0.505 0.498-0.513l0.001-0c0.277 0.008 0.499 0.234 0.499 0.513 0 0.005-0 0.010-0 0.015l0-0.001c0 0.004 0 0.009 0 0.014 0 0.278-0.222 0.505-0.498 0.513l-0.001 0c-0.277-0.008-0.499-0.235-0.499-0.513 0-0.005 0-0.011 0-0.016l-0 0.001zM23.485 18.717c-0-0.004-0-0.009-0-0.014 0-0.278 0.222-0.505 0.498-0.513l0.001-0c0.277 0.008 0.499 0.235 0.499 0.513 0 0.005-0 0.010-0 0.015l0-0.001c0 0.004 0 0.009 0 0.014 0 0.279-0.222 0.505-0.498 0.513l-0.001 0c-0.277-0.008-0.499-0.235-0.499-0.513 0-0.005 0-0.011 0-0.016l-0 0.001zM22.17 18.717c-0-0.004-0-0.009-0-0.014 0-0.279 0.222-0.505 0.498-0.513l0.001-0c0.277 0.008 0.499 0.234 0.499 0.513 0 0.005-0 0.010-0 0.015l0-0.001c0 0.004 0 0.009 0 0.014 0 0.278-0.222 0.505-0.498 0.513l-0.001 0c-0.277-0.008-0.499-0.235-0.499-0.513 0-0.005 0-0.011 0-0.016l-0 0.001zM20.676 18.717c-0-0.004-0-0.010-0-0.015 0-0.278 0.222-0.505 0.498-0.512h0.001c0.277 0.008 0.499 0.234 0.499 0.513 0 0.005-0 0.010-0 0.015l0-0.001c0 0.004 0 0.009 0 0.014 0 0.278-0.222 0.505-0.498 0.513l-0.001 0c-0.277-0.008-0.499-0.234-0.499-0.513 0-0.006 0-0.011 0-0.017l-0 0.001zM24.978 17.135c-0-0.004-0-0.009-0-0.014 0-0.279 0.222-0.505 0.498-0.513l0.001-0c0.277 0.008 0.499 0.235 0.499 0.513 0 0.005-0 0.010-0 0.015l0-0.001c0 0.004 0 0.009 0 0.014 0 0.278-0.222 0.505-0.498 0.513l-0.001 0c-0.277-0.008-0.499-0.235-0.499-0.513 0-0.005 0-0.011 0-0.016l-0 0.001zM23.485 17.135c-0-0.004-0-0.009-0-0.014 0-0.278 0.222-0.505 0.498-0.513l0.001-0c0.277 0.008 0.499 0.235 0.499 0.513 0 0.005-0 0.010-0 0.015l0-0.001c0 0.004 0 0.009 0 0.014 0 0.278-0.222 0.505-0.498 0.513l-0.001 0c-0.277-0.008-0.499-0.234-0.499-0.512 0-0.006 0-0.011 0-0.017l-0 0.001zM22.17 17.135c-0-0.004-0-0.009-0-0.014 0-0.279 0.222-0.505 0.498-0.513l0.001-0c0.277 0.008 0.499 0.235 0.499 0.513 0 0.005-0 0.010-0 0.015l0-0.001c0 0.004 0 0.010 0 0.015 0 0.278-0.222 0.505-0.498 0.512h-0.001c-0.277-0.008-0.499-0.235-0.499-0.513 0-0.005 0-0.011 0-0.016l-0 0.001zM20.676 17.135c-0-0.004-0-0.010-0-0.015 0-0.278 0.222-0.505 0.498-0.513l0.001-0c0.277 0.008 0.499 0.235 0.499 0.513 0 0.005-0 0.010-0 0.015l0-0.001c0 0.004 0 0.009 0 0.014 0 0.278-0.222 0.505-0.498 0.513l-0.001 0c-0.277-0.007-0.499-0.233-0.499-0.512 0-0.006 0-0.012 0-0.017l-0 0.001zM24.978 15.556c-0-0.004-0-0.009-0-0.014 0-0.279 0.222-0.505 0.498-0.514l0.001-0c0.277 0.008 0.499 0.235 0.499 0.513 0 0.005-0 0.010-0 0.015l0-0.001c0 0.004 0 0.009 0 0.014 0 0.278-0.222 0.505-0.498 0.513l-0.001 0c-0.277-0.008-0.499-0.235-0.499-0.513 0-0.006 0-0.012 0-0.018l-0 0.001zM23.485 15.556c-0-0.004-0-0.009-0-0.014 0-0.278 0.222-0.505 0.498-0.513l0.001-0c0.277 0.008 0.499 0.235 0.499 0.514 0 0.005-0 0.009-0 0.014v-0.001c0 0.004 0 0.009 0 0.014 0 0.278-0.222 0.505-0.498 0.513l-0.001 0c-0.277-0.008-0.499-0.235-0.499-0.513 0-0.006 0-0.012 0-0.018l-0 0.001zM22.17 15.556c-0-0.004-0-0.009-0-0.014 0-0.279 0.222-0.505 0.498-0.514l0.001-0c0.277 0.008 0.499 0.235 0.499 0.513 0 0.005-0 0.010-0 0.015l0-0.001c0 0.004 0 0.009 0 0.014 0 0.278-0.222 0.505-0.498 0.513l-0.001 0c-0.277-0.008-0.499-0.235-0.499-0.513 0-0.006 0-0.012 0-0.018l-0 0.001zM20.676 15.556c-0-0.004-0-0.009-0-0.014 0-0.278 0.222-0.505 0.498-0.513l0.001-0c0.277 0.008 0.499 0.235 0.499 0.513 0 0.005-0 0.010-0 0.015l0-0.001c0 0.004 0 0.009 0 0.014 0 0.278-0.222 0.505-0.498 0.513l-0.001 0c-0.277-0.008-0.499-0.234-0.499-0.513 0-0.006 0-0.012 0-0.019l-0 0.001zM24.978 13.974c-0-0.004-0-0.009-0-0.014 0-0.279 0.222-0.505 0.498-0.514l0.001-0c0.277 0.008 0.499 0.235 0.499 0.513 0 0.005-0 0.010-0 0.015l0-0.001c0 0.004 0 0.009 0 0.014 0 0.278-0.222 0.505-0.498 0.513l-0.001 0c-0.277-0.008-0.499-0.235-0.499-0.513 0-0.006 0-0.012 0-0.018l-0 0.001zM23.485 13.974c-0-0.004-0-0.009-0-0.014 0-0.278 0.222-0.505 0.498-0.513l0.001-0c0.277 0.008 0.499 0.235 0.499 0.514 0 0.005-0 0.009-0 0.014v-0.001c0 0.004 0 0.009 0 0.014 0 0.278-0.222 0.505-0.498 0.513l-0.001 0c-0.277-0.008-0.499-0.235-0.499-0.513 0-0.006 0-0.012 0-0.019l-0 0.001zM22.17 13.974c-0-0.004-0-0.009-0-0.014 0-0.279 0.222-0.505 0.498-0.514l0.001-0c0.277 0.008 0.499 0.235 0.499 0.513 0 0.005-0 0.010-0 0.015l0-0.001c0 0.004 0 0.010 0 0.015 0 0.278-0.222 0.505-0.498 0.513l-0.001 0c-0.277-0.008-0.499-0.235-0.499-0.514 0-0.006 0-0.012 0-0.018l-0 0.001zM20.676 13.974c-0-0.004-0-0.009-0-0.014 0-0.278 0.222-0.505 0.498-0.513l0.001-0c0.277 0.008 0.499 0.235 0.499 0.513 0 0.005-0 0.010-0 0.015l0-0.001c0 0.004 0 0.010 0 0.015 0 0.278-0.222 0.505-0.498 0.513l-0.001 0c-0.277-0.007-0.499-0.234-0.499-0.513 0-0.006 0-0.013 0-0.019l-0 0.001zM24.978 12.395c-0-0.004-0-0.009-0-0.014 0-0.278 0.222-0.505 0.498-0.513l0.001-0c0.277 0.008 0.499 0.235 0.499 0.513 0 0.005-0 0.010-0 0.015l0-0.001c0 0.004 0 0.009 0 0.014 0 0.278-0.222 0.505-0.498 0.513l-0.001 0c-0.277-0.008-0.499-0.235-0.499-0.513 0-0.007 0-0.013 0-0.020l-0 0.001zM23.485 12.395c-0-0.004-0-0.009-0-0.014 0-0.278 0.222-0.505 0.498-0.513l0.001-0c0.277 0.008 0.499 0.235 0.499 0.513 0 0.005-0 0.009-0 0.014v-0.001c0 0.004 0 0.009 0 0.014 0 0.278-0.222 0.505-0.498 0.513l-0.001 0c-0.277-0.008-0.499-0.235-0.499-0.513 0-0.007 0-0.014 0-0.020l-0 0.001zM22.17 12.395c-0-0.004-0-0.009-0-0.014 0-0.278 0.222-0.505 0.498-0.513l0.001-0c0.277 0.008 0.499 0.235 0.499 0.513 0 0.005-0 0.010-0 0.015l0-0.001c0 0.004 0 0.009 0 0.014 0 0.278-0.222 0.505-0.498 0.513l-0.001 0c-0.277-0.008-0.499-0.235-0.499-0.513 0-0.007 0-0.013 0-0.020l-0 0.001zM20.676 12.395c-0-0.004-0-0.009-0-0.014 0-0.278 0.222-0.505 0.498-0.513l0.001-0c0.277 0.008 0.499 0.235 0.499 0.513 0 0.005-0 0.010-0 0.015l0-0.001c0 0.004 0 0.009 0 0.014 0 0.278-0.222 0.505-0.498 0.513l-0.001 0c-0.277-0.007-0.5-0.234-0.5-0.513 0-0.007 0-0.014 0-0.021l-0 0.001zM24.978 11.013c-0-0.004-0-0.009-0-0.014 0-0.278 0.222-0.505 0.498-0.513l0.001-0c0.277 0.008 0.499 0.234 0.499 0.513 0 0.005-0 0.010-0 0.015l0-0.001c0 0.004 0 0.009 0 0.014 0 0.278-0.222 0.505-0.498 0.513l-0.001 0c-0.277-0.008-0.499-0.235-0.499-0.513 0-0.007 0-0.013 0-0.020l-0 0.001zM23.485 11.013c-0-0.004-0-0.009-0-0.014 0-0.278 0.222-0.505 0.498-0.513l0.001-0c0.277 0.008 0.499 0.235 0.499 0.513 0 0.005-0 0.010-0 0.015l0-0.001c0 0.004 0 0.009 0 0.014 0 0.278-0.222 0.505-0.498 0.513l-0.001 0c-0.277-0.008-0.499-0.234-0.499-0.513 0-0.007 0-0.014 0-0.020l-0 0.001zM22.17 11.013c-0-0.004-0-0.009-0-0.014 0-0.278 0.222-0.505 0.498-0.513l0.001-0c0.277 0.008 0.499 0.234 0.499 0.513 0 0.005-0 0.010-0 0.015l0-0.001c0 0.004 0 0.009 0 0.014 0 0.278-0.222 0.505-0.498 0.513l-0.001 0c-0.277-0.008-0.499-0.235-0.499-0.513 0-0.007 0-0.013 0-0.019l-0 0.001zM20.676 11.013c-0-0.004-0-0.010-0-0.015 0-0.278 0.222-0.505 0.498-0.512h0.001c0.277 0.008 0.499 0.234 0.499 0.513 0 0.005-0 0.010-0 0.015l0-0.001c0 0.004 0 0.009 0 0.014 0 0.278-0.222 0.505-0.498 0.513l-0.001 0c-0.277-0.007-0.5-0.234-0.5-0.512 0-0.007 0-0.014 0-0.021l-0 0.001zM24.978 9.434c-0-0.004-0-0.009-0-0.014 0-0.278 0.222-0.505 0.498-0.513l0.001-0c0.277 0.008 0.499 0.235 0.499 0.513 0 0.005-0 0.010-0 0.015l0-0.001c0 0.004 0 0.009 0 0.014 0 0.278-0.222 0.505-0.498 0.513l-0.001 0c-0.277-0.008-0.499-0.235-0.499-0.513 0-0.007 0-0.014 0-0.022l-0 0.001zM23.485 9.434c-0-0.004-0-0.010-0-0.015 0-0.278 0.222-0.505 0.498-0.513l0.001-0c0.277 0.008 0.499 0.235 0.499 0.513 0 0.005-0 0.010-0 0.015l0-0.001c0 0.004 0 0.009 0 0.014 0 0.278-0.222 0.505-0.498 0.513l-0.001 0c-0.277-0.008-0.499-0.235-0.499-0.513 0-0.007 0-0.015 0-0.022l-0 0.001zM22.17 9.434c-0-0.004-0-0.009-0-0.014 0-0.279 0.222-0.505 0.498-0.514l0.001-0c0.277 0.008 0.499 0.235 0.499 0.513 0 0.005-0 0.010-0 0.015l0-0.001c0 0.004 0 0.009 0 0.014 0 0.278-0.222 0.505-0.498 0.513l-0.001 0c-0.277-0.008-0.499-0.235-0.499-0.513 0-0.007 0-0.014 0-0.022l-0 0.001zM20.676 9.434c-0-0.005-0-0.010-0-0.015 0-0.278 0.222-0.505 0.498-0.513l0.001-0c0.277 0.008 0.499 0.235 0.499 0.513 0 0.005-0 0.010-0 0.015l0-0.001c0 0.004 0 0.009 0 0.014 0 0.278-0.222 0.505-0.498 0.513l-0.001 0c-0.277-0.007-0.5-0.234-0.5-0.513 0-0.008 0-0.015 0-0.022l-0 0.001zM24.978 7.852c-0-0.004-0-0.009-0-0.014 0-0.279 0.222-0.505 0.498-0.514l0.001-0c0.277 0.008 0.499 0.235 0.499 0.513 0 0.005-0 0.010-0 0.015l0-0.001c0 0.004 0 0.010 0 0.015 0 0.278-0.222 0.505-0.498 0.512h-0.001c-0.277-0.008-0.499-0.234-0.499-0.513 0-0.007 0-0.015 0-0.022l-0 0.001zM23.485 7.852c-0-0.004-0-0.009-0-0.014 0-0.279 0.222-0.505 0.498-0.513l0.001-0c0.277 0.008 0.499 0.235 0.499 0.514 0 0.005-0 0.010-0 0.014v-0.001c0 0.004 0 0.009 0 0.014 0 0.278-0.222 0.505-0.498 0.513l-0.001 0c-0.277-0.007-0.499-0.234-0.499-0.512 0-0.008 0-0.015 0-0.022l-0 0.001zM22.17 7.852c-0-0.004-0-0.009-0-0.014 0-0.279 0.222-0.505 0.498-0.514l0.001-0c0.277 0.008 0.499 0.235 0.499 0.513 0 0.005-0 0.010-0 0.015l0-0.001c0 0.004 0 0.010 0 0.015 0 0.278-0.222 0.505-0.498 0.512h-0.001c-0.277-0.008-0.499-0.234-0.499-0.513 0-0.007 0-0.015 0-0.022l-0 0.001zM20.676 7.852c-0-0.004-0-0.009-0-0.014 0-0.278 0.222-0.505 0.498-0.513l0.001-0c0.277 0.008 0.499 0.235 0.499 0.513 0 0.005-0 0.010-0 0.015l0-0.001c0 0.004 0 0.010 0 0.015 0 0.278-0.222 0.505-0.498 0.512h-0.001c-0.277-0.007-0.5-0.233-0.5-0.512 0-0.008 0-0.015 0-0.023l-0 0.001zM24.978 6.273c-0-0.004-0-0.009-0-0.014 0-0.279 0.222-0.505 0.498-0.513l0.001-0c0.277 0.008 0.499 0.235 0.499 0.513 0 0.005-0 0.010-0 0.015l0-0.001c0 0.004 0 0.009 0 0.014 0 0.278-0.222 0.505-0.498 0.513l-0.001 0c-0.277-0.008-0.499-0.235-0.499-0.513 0-0.008 0-0.016 0.001-0.024l-0 0.001zM23.485 6.273c-0-0.004-0-0.010-0-0.015 0-0.278 0.222-0.505 0.498-0.513l0.001-0c0.277 0.008 0.499 0.235 0.499 0.513 0 0.005-0 0.010-0 0.015l0-0.001c0 0.004 0 0.009 0 0.014 0 0.279-0.222 0.505-0.498 0.513l-0.001 0c-0.277-0.008-0.499-0.235-0.499-0.513 0-0.008 0-0.016 0.001-0.024l-0 0.001zM22.17 6.273c-0-0.004-0-0.009-0-0.014 0-0.279 0.222-0.505 0.498-0.514l0.001-0c0.277 0.008 0.499 0.235 0.499 0.513 0 0.005-0 0.010-0 0.016l0-0.001c0 0.004 0 0.009 0 0.014 0 0.278-0.222 0.505-0.498 0.513l-0.001 0c-0.277-0.008-0.499-0.235-0.499-0.513 0-0.008 0-0.016 0.001-0.024l-0 0.001zM20.676 6.273c-0-0.005-0-0.010-0-0.015 0-0.278 0.222-0.505 0.498-0.513l0.001-0c0.277 0.008 0.499 0.235 0.499 0.513 0 0.005-0 0.010-0 0.016l0-0.001c0 0.004 0 0.009 0 0.014 0 0.278-0.222 0.505-0.498 0.513l-0.001 0c-0.277-0.007-0.5-0.234-0.5-0.513 0-0.008 0-0.016 0.001-0.025l-0 0.001zM24.978 4.691c-0-0.004-0-0.009-0-0.014 0-0.278 0.222-0.505 0.498-0.513l0.001-0c0.277 0.008 0.499 0.234 0.499 0.513 0 0.005-0 0.010-0 0.015l0-0.001c0 0.004 0 0.009 0 0.014 0 0.278-0.222 0.505-0.498 0.513l-0.001 0c-0.277-0.008-0.499-0.235-0.499-0.513 0-0.008 0-0.016 0.001-0.023l-0 0.001zM23.485 4.691c-0-0.004-0-0.009-0-0.014 0-0.278 0.222-0.505 0.498-0.513l0.001-0c0.277 0.008 0.499 0.235 0.499 0.513 0 0.005-0 0.010-0 0.015l0-0.001c0 0.004 0 0.009 0 0.014 0 0.279-0.222 0.505-0.498 0.513l-0.001 0c-0.277-0.008-0.499-0.234-0.499-0.513 0-0.008 0-0.016 0.001-0.024l-0 0.001zM22.17 4.691c-0-0.004-0-0.009-0-0.013 0-0.279 0.222-0.505 0.498-0.513l0.001-0c0.277 0.008 0.499 0.234 0.499 0.513 0 0.005-0 0.010-0 0.015l0-0.001c0 0.004 0 0.010 0 0.015 0 0.278-0.222 0.505-0.498 0.513l-0.001 0c-0.277-0.008-0.499-0.235-0.499-0.513 0-0.008 0-0.016 0.001-0.023l-0 0.001zM20.676 4.691c-0-0.004-0-0.010-0-0.015 0-0.278 0.222-0.505 0.498-0.512h0.001c0.277 0.008 0.499 0.234 0.499 0.513 0 0.005-0 0.010-0 0.015l0-0.001c0 0.004 0 0.010 0 0.015 0 0.278-0.222 0.505-0.498 0.513l-0.001 0c-0.277-0.007-0.5-0.234-0.5-0.512 0-0.008 0-0.016 0.001-0.025l-0 0.001z"
      />
</symbol>
<symbol id="icon-material-favorite" viewBox="0 0 24 24">
<path d="m12 21.35-1.45-1.32C5.4 15.36 2 12.28 2 8.5 2 5.42 4.42 3 7.5 3c1.74 0 3.41.81 4.5 2.09C13.09 3.81 14.76 3 16.5 3 19.58 3 22 5.42 22 8.5c0 3.78-3.4 6.86-8.55 11.54L12 21.35z"></path>
</symbol>
<symbol id="icon-plus-circle" viewBox="0 0 32 32">
<path
        d="M15.994 7c0.552 0 0.999 0.447 0.999 0.999v0 7.995c0 0.552-0.447 0.999-0.999 0.999h-7.995c-0.552 0-1-0.448-1-1s0.448-1 1-1h7v-6.994c0 0 0 0 0 0 0-0.55 0.445-0.997 0.995-0.999h0z"
      />
<path
        d="M15 15.999c0-0.552 0.447-0.999 0.999-0.999v0h7.995c0.552 0 1 0.448 1 1s-0.448 1-1 1h-6.994v6.994c0 0.552-0.448 1-1 1s-1-0.448-1-1v0z"
      />
<path
        d="M15.999 30v0c-7.732 0-13.999-6.268-13.999-13.999 0-0 0-0.001 0-0.001v-0c0.001-7.731 6.268-13.998 13.999-13.998s13.999 6.268 13.999 13.999-6.268 13.999-13.999 13.999zM15.999 32c8.836 0 15.999-7.163 15.999-15.999s-7.163-15.999-15.999-15.999c-8.836 0-15.999 7.162-15.999 15.998v0c0 0 0 0.001 0 0.001 0 8.836 7.163 15.999 15.999 15.999v0z"
      />
</symbol>
<symbol id="email" viewBox="0 0 43 32">
<path d="M38.667 0h-34.667c-2.206 0-4 1.794-4 4v24c0 2.206 1.794 4 4 4h34.667c2.206 0 4-1.794 4-4v-24c0-2.206-1.794-4-4-4zM38.667 2.667c0.181 0 0.353 0.038 0.511 0.103l-17.844 15.466-17.844-15.466c0.158-0.066 0.33-0.103 0.511-0.103h34.667zM38.667 29.333h-34.667c-0.736 0-1.333-0.598-1.333-1.333v-22.413l17.793 15.421c0.251 0.217 0.563 0.326 0.874 0.326s0.622-0.108 0.874-0.326l17.793-15.421v22.413c0 0.736-0.598 1.333-1.333 1.333z"></path>
</symbol>
<symbol id="facebook" viewBox="0 0 32 32">
<path d="M21.329 5.313h2.921v-5.088c-0.504-0.069-2.237-0.225-4.256-0.225-4.212 0-7.097 2.649-7.097 7.519v4.481h-4.648v5.688h4.648v14.312h5.699v-14.311h4.46l0.708-5.688h-5.169v-3.919c0.001-1.644 0.444-2.769 2.735-2.769z"></path>
</symbol>
<symbol id="instagram" viewBox="0 0 32 32">
<path d="M31.969 9.408c-0.075-1.7-0.35-2.869-0.744-3.882-0.406-1.075-1.031-2.038-1.85-2.838-0.8-0.813-1.769-1.444-2.832-1.844-1.019-0.394-2.182-0.669-3.882-0.744-1.713-0.081-2.257-0.1-6.601-0.1s-4.888 0.019-6.595 0.094c-1.7 0.075-2.869 0.35-3.882 0.744-1.075 0.406-2.038 1.031-2.838 1.85-0.813 0.8-1.444 1.769-1.844 2.832-0.394 1.019-0.669 2.182-0.744 3.882-0.081 1.713-0.1 2.257-0.1 6.601s0.019 4.888 0.094 6.595c0.075 1.7 0.35 2.869 0.744 3.882 0.406 1.075 1.038 2.038 1.85 2.838 0.8 0.813 1.769 1.444 2.832 1.844 1.019 0.394 2.182 0.669 3.882 0.744 1.706 0.075 2.25 0.094 6.595 0.094s4.888-0.019 6.595-0.094c1.7-0.075 2.869-0.35 3.882-0.744 2.151-0.832 3.851-2.532 4.682-4.682 0.394-1.019 0.669-2.182 0.744-3.882 0.075-1.707 0.094-2.251 0.094-6.595s-0.006-4.888-0.081-6.595zM29.087 22.473c-0.069 1.563-0.331 2.407-0.55 2.969-0.538 1.394-1.644 2.5-3.038 3.038-0.563 0.219-1.413 0.481-2.969 0.55-1.688 0.075-2.194 0.094-6.464 0.094s-4.782-0.019-6.464-0.094c-1.563-0.069-2.407-0.331-2.969-0.55-0.694-0.256-1.325-0.663-1.838-1.194-0.531-0.519-0.938-1.144-1.194-1.838-0.219-0.563-0.481-1.413-0.55-2.969-0.075-1.688-0.094-2.194-0.094-6.464s0.019-4.782 0.094-6.464c0.069-1.563 0.331-2.407 0.55-2.969 0.256-0.694 0.663-1.325 1.2-1.838 0.519-0.531 1.144-0.938 1.838-1.194 0.563-0.219 1.413-0.481 2.969-0.55 1.688-0.075 2.194-0.094 6.464-0.094 4.276 0 4.782 0.019 6.464 0.094 1.563 0.069 2.407 0.331 2.969 0.55 0.694 0.256 1.325 0.662 1.838 1.194 0.531 0.519 0.938 1.144 1.194 1.838 0.219 0.563 0.481 1.413 0.55 2.969 0.075 1.688 0.094 2.194 0.094 6.464s-0.019 4.77-0.094 6.458z"></path>
<path d="M16.059 7.783c-4.538 0-8.22 3.682-8.22 8.22s3.682 8.22 8.22 8.22c4.538 0 8.22-3.682 8.22-8.22s-3.682-8.22-8.22-8.22zM16.059 21.335c-2.944 0-5.332-2.388-5.332-5.332s2.388-5.332 5.332-5.332c2.944 0 5.332 2.388 5.332 5.332s-2.388 5.332-5.332 5.332z"></path>
<path d="M26.524 7.458c0 1.060-0.859 1.919-1.919 1.919s-1.919-0.859-1.919-1.919c0-1.060 0.859-1.919 1.919-1.919s1.919 0.859 1.919 1.919z"></path>
</symbol>
<symbol id="linkedin" viewBox="0 0 32 32">
<path d="M31.992 32v-0.001h0.008v-11.736c0-5.741-1.236-10.164-7.948-10.164-3.227 0-5.392 1.771-6.276 3.449h-0.093v-2.913h-6.364v21.364h6.627v-10.579c0-2.785 0.528-5.479 3.977-5.479 3.399 0 3.449 3.179 3.449 5.657v10.401h6.62z"></path>
<path d="M0.528 10.636h6.635v21.364h-6.635v-21.364z"></path>
<path d="M3.843 0c-2.121 0-3.843 1.721-3.843 3.843s1.721 3.879 3.843 3.879c2.121 0 3.843-1.757 3.843-3.879-0.001-2.121-1.723-3.843-3.843-3.843v0z"></path>
</symbol>
</defs>
</svg>
